# xmcd CD database file generated by GCD 2.94
# 
# Track frame offsets:
#       150
#       13462
#       27664
#       42296
#       54138
#       66305
#       80647
#       96539
#       112223
#       124545
#       139017
#       152644
#       166006
#       179161
#       196390
#       209842
#       224839
#       242194
#       255044
#       277773
#       294140
# 
# Disc length: 4146 seconds
# 
# Revision: 3
# Processed by: cddbd v1.5PL3 Copyright (c) Steve Scherf et al.
# Submitted via: GCD 2.94
# 
DISCID=41103015
DTITLE=Lacy J. Dalton - Anthology
DYEAR=1900
DGENRE=
TTITLE0=Crazy Blue Eyes
TTITLE1=Tennessee Waltz
TTITLE2=Losing Kind Of Love
TTITLE3=Hard Times
TTITLE4=Hillbilly Girl With The Blues
TTITLE5=Whisper
TTITLE6=Takin' It Easy
TTITLE7=Everybody Makes Mistakes
TTITLE8=Slow Down
TTITLE9=16th Avenue
TTITLE10=It's A Dirty Job
TTITLE11=Dream Baby (How Long Must I Dream)
TTITLE12=If That Ain't Love
TTITLE13=You Can't Run Away From Your Heart
TTITLE14=Size Seven Round (Made Of Gold)
TTITLE15=Working Class Man
TTITLE16=This Ol' Town
TTITLE17=The Heart
TTITLE18=Hard Luck Ace
TTITLE19=Black Coffee
TTITLE20=Don't Fall In Love With Me
EXTD=
EXTT0=
EXTT1=
EXTT2=
EXTT3=
EXTT4=
EXTT5=
EXTT6=
EXTT7=
EXTT8=
EXTT9=
EXTT10=
EXTT11=
EXTT12=
EXTT13=
EXTT14=
EXTT15=
EXTT16=
EXTT17=
EXTT18=
EXTT19=
EXTT20=
PLAYORDER=
